M48
METRIC,TZ
VER,1
FMAT,2
DETECT,ON
ATC,ON
T1C0.6000
T2C0.8890
T3C1.1810
T4C0.8466
%
T1
X-40640Y83820
X149860Y0
Y-50800
Y248920
T2
X203200Y-127000
X177800Y-228600
Y-203200
Y-177800
Y-152400
Y-127000
Y-101600
Y-76200
Y-50800
Y-25400
Y0
Y25400
Y50800
Y76200
Y101600
Y127000
Y152400
Y177800
Y203200
Y228600
X203200Y-254000
Y-228600
Y-203200
Y-177800
Y-152400
Y-101600
Y-76200
Y-50800
Y-25400
Y0
Y25400
Y50800
Y76200
Y101600
Y127000
Y152400
Y177800
Y203200
Y228600
X177800Y-254000
X-20320Y-35560
X-96520Y-137160
X-20320Y-86360
Y-111760
Y-60960
Y-10160
Y15240
Y40640
X-96520Y15240
Y-60960
Y-86360
Y-111760
Y-10160
Y-35560
Y40640
X-20320Y-137160
X-142240Y208280
T3
X-76200Y208280
X-50800
X-76200Y137160
X-50800
X-71120Y-233680
X-45720
X66040Y-60960
Y-35560
X-187960Y-60960
Y-35560
T4
X-142240Y132080
M30
