G04 Generated by Ultiboard 14.0 *
%FSLAX34Y34*%
%MOMM*%

%ADD10C,0.0001*%
%ADD11C,0.1556*%
%ADD12C,0.2540*%
%ADD13C,0.2000*%
%ADD14C,0.2032*%
%ADD15C,0.1270*%
%ADD16C,0.50000*%
%ADD17C,1.00000*%


G04 ColorRGB FFFF00 for the following layer *
%LNSilkscreen Top*%
%LPD*%
G54D10*
G54D11*
X231850Y-20664D02*
X233850Y-18673D01*
X233850Y-16682D01*
X231850Y-14691D01*
X223850Y-14691D01*
X225850Y-10709D02*
X223850Y-8718D01*
X233850Y-8718D01*
X233850Y-11704D02*
X233850Y-5731D01*
X-71464Y158780D02*
X-69473Y156780D01*
X-67482Y156780D01*
X-65491Y158780D01*
X-65491Y166780D01*
X-61509Y165780D02*
X-60513Y166780D01*
X-58522Y166780D01*
X-56531Y164780D01*
X-56531Y162780D01*
X-57527Y161780D01*
X-56531Y160780D01*
X-56531Y158780D01*
X-58522Y156780D01*
X-60513Y156780D01*
X-61509Y157780D01*
X-60513Y161780D02*
X-57527Y161780D01*
X-71464Y87660D02*
X-69473Y85660D01*
X-67482Y85660D01*
X-65491Y87660D01*
X-65491Y95660D01*
X-62504Y93660D02*
X-60513Y95660D01*
X-58522Y95660D01*
X-56531Y93660D01*
X-56531Y92660D01*
X-62504Y85660D01*
X-56531Y85660D01*
X-56531Y86660D01*
X-66384Y-283180D02*
X-64393Y-285180D01*
X-62402Y-285180D01*
X-60411Y-283180D01*
X-60411Y-275180D01*
X-53442Y-285180D02*
X-55433Y-285180D01*
X-57424Y-283180D01*
X-57424Y-281180D01*
X-56429Y-280180D01*
X-57424Y-279180D01*
X-57424Y-277180D01*
X-55433Y-275180D01*
X-53442Y-275180D01*
X-51451Y-277180D01*
X-51451Y-279180D01*
X-52447Y-280180D01*
X-51451Y-281180D01*
X-51451Y-283180D01*
X-53442Y-285180D01*
X-56429Y-280180D02*
X-52447Y-280180D01*
X115540Y-60704D02*
X117540Y-58713D01*
X117540Y-56722D01*
X115540Y-54731D01*
X107540Y-54731D01*
X109540Y-50749D02*
X107540Y-48758D01*
X117540Y-48758D01*
X117540Y-51744D02*
X117540Y-45771D01*
X109540Y-41789D02*
X107540Y-39798D01*
X117540Y-39798D01*
X117540Y-42784D02*
X117540Y-36811D01*
X-138460Y-60704D02*
X-136460Y-58713D01*
X-136460Y-56722D01*
X-138460Y-54731D01*
X-146460Y-54731D01*
X-144460Y-50749D02*
X-146460Y-48758D01*
X-136460Y-48758D01*
X-136460Y-51744D02*
X-136460Y-45771D01*
X-144460Y-42784D02*
X-146460Y-40793D01*
X-146460Y-38802D01*
X-144460Y-36811D01*
X-138460Y-36811D01*
X-136460Y-38802D01*
X-136460Y-40793D01*
X-138460Y-42784D01*
X-144460Y-42784D01*
X-144460Y-36811D02*
X-138460Y-42784D01*
G54D12*
X164100Y-267950D02*
X216900Y-267950D01*
X216900Y242550D01*
X164100Y242550D01*
X164100Y-267950D01*
G54D13*
X-92450Y242280D02*
X-34550Y242280D01*
X-34550Y174280D01*
X-92450Y174280D01*
X-92450Y242280D01*
X-92450Y171160D02*
X-34550Y171160D01*
X-34550Y103160D01*
X-92450Y103160D01*
X-92450Y171160D01*
X-87370Y-199680D02*
X-29470Y-199680D01*
X-29470Y-267680D01*
X-87370Y-267680D01*
X-87370Y-199680D01*
X32040Y-77210D02*
X100040Y-77210D01*
X100040Y-19310D01*
X32040Y-19310D01*
X32040Y-77210D01*
X-221960Y-77210D02*
X-153960Y-77210D01*
X-153960Y-19310D01*
X-221960Y-19310D01*
X-221960Y-77210D01*
G54D14*
X-9090Y-54688D02*
X910Y-48714D01*
X910Y-54688D02*
X-9090Y-48714D01*
X-7090Y-45728D02*
X-9090Y-43736D01*
X-9090Y-41745D01*
X-7090Y-39754D01*
X-6090Y-39754D01*
X910Y-45728D01*
X910Y-39754D01*
X-90Y-39754D01*
X-85770Y60740D02*
X-85770Y-157260D01*
X-31070Y-157260D02*
X-31070Y60740D01*
X-85770Y-157260D02*
X-31070Y-157260D01*
X-31070Y60740D02*
X-85770Y60740D01*
X-153529Y232168D02*
X-150707Y230656D01*
X-147884Y230656D01*
X-145062Y232168D01*
X-153529Y236704D01*
X-150707Y238216D01*
X-147884Y238216D01*
X-145062Y236704D01*
X-140829Y236704D02*
X-138007Y238216D01*
X-135184Y238216D01*
X-132362Y236704D01*
X-132362Y235948D01*
X-140829Y230656D01*
X-132362Y230656D01*
X-132362Y231412D01*
X-123190Y119380D02*
X-161290Y119380D01*
X-161290Y220980D02*
X-123190Y220980D01*
X-161290Y119380D02*
X-161290Y220980D01*
X-146050Y189230D02*
X-146050Y151130D01*
X-138430Y151130D02*
X-138430Y189230D01*
X-146050Y151130D02*
X-138430Y151130D01*
X-159174Y184997D02*
X-159166Y184813D01*
X-159141Y184629D01*
X-159102Y184449D01*
X-159046Y184273D01*
X-158975Y184102D01*
X-158890Y183939D01*
X-158791Y183783D01*
X-158678Y183636D01*
X-158554Y183500D01*
X-158418Y183376D01*
X-158271Y183263D01*
X-158115Y183164D01*
X-157952Y183079D01*
X-157781Y183008D01*
X-157605Y182952D01*
X-157425Y182912D01*
X-157241Y182888D01*
X-157057Y182880D01*
X-156873Y182888D01*
X-156689Y182912D01*
X-156509Y182952D01*
X-156333Y183008D01*
X-156162Y183079D01*
X-155999Y183164D01*
X-155843Y183263D01*
X-155696Y183376D01*
X-155560Y183500D01*
X-155436Y183636D01*
X-155323Y183783D01*
X-155224Y183939D01*
X-155139Y184102D01*
X-155068Y184273D01*
X-155012Y184449D01*
X-154972Y184629D01*
X-154948Y184813D01*
X-154940Y184997D01*
X-154940Y189230D02*
X-154948Y189414D01*
X-154972Y189598D01*
X-155012Y189778D01*
X-155068Y189954D01*
X-155139Y190125D01*
X-155224Y190288D01*
X-155323Y190444D01*
X-155436Y190591D01*
X-155560Y190727D01*
X-155696Y190851D01*
X-155843Y190964D01*
X-155999Y191063D01*
X-156162Y191148D01*
X-156333Y191219D01*
X-156509Y191275D01*
X-156689Y191315D01*
X-156873Y191339D01*
X-157057Y191347D01*
X-157241Y191339D01*
X-157425Y191315D01*
X-157605Y191275D01*
X-157781Y191219D01*
X-157952Y191148D01*
X-158115Y191063D01*
X-158271Y190964D01*
X-158418Y190851D01*
X-158554Y190727D01*
X-158678Y190591D01*
X-158791Y190444D01*
X-158890Y190288D01*
X-158975Y190125D01*
X-159046Y189954D01*
X-159102Y189778D01*
X-159142Y189598D01*
X-159166Y189414D01*
X-159174Y189230D01*
X-159173Y189230D02*
X-159173Y184997D01*
X-154940Y184997D02*
X-154940Y189230D01*
X-144780Y171450D02*
X-144780Y187960D01*
X-143510Y171450D02*
X-143510Y186690D01*
X-146050Y170180D02*
X-138430Y170180D01*
X-139700Y171450D02*
X-142240Y171450D01*
X-143510Y171450D01*
X-139700Y172720D02*
X-139700Y171450D01*
X-139700Y187960D02*
X-139700Y172720D01*
X-142240Y172720D02*
X-142240Y185420D01*
X-140970Y186690D02*
X-140970Y172720D01*
X-142240Y172720D01*
X-148590Y182880D02*
X-152823Y191347D01*
X-152823Y182880D01*
X-148590Y191347D02*
X-148590Y182880D01*
X-138430Y189230D02*
X-146050Y189230D01*
X-144780Y187960D02*
X-139700Y187960D01*
X-143510Y186690D02*
X-140970Y186690D01*
X-123190Y220980D02*
X-123190Y119380D01*
G54D15*
X-233433Y-289306D02*
X-233433Y-232969D01*
X-233433Y-289306D02*
X-185731Y-289306D01*
X243586Y-289306D02*
X195884Y-289306D01*
X243586Y-289306D02*
X243586Y-232969D01*
X243586Y274066D02*
X243586Y217729D01*
X243586Y274066D02*
X195884Y274066D01*
X-233433Y274066D02*
X-185731Y274066D01*
X-233433Y274066D02*
X-233433Y217729D01*
X-283433Y-289306D02*
X-383433Y-289306D01*
X-333433Y-339306D02*
X-333433Y-239306D01*
X-370933Y-289306D02*
G75*
D01*
G02X-370933Y-289306I37500J0*
G01*
X293586Y-289306D02*
X393586Y-289306D01*
X343586Y-339306D02*
X343586Y-239306D01*
X306086Y-289306D02*
G75*
D01*
G02X306086Y-289306I37500J0*
G01*
X331086Y-289306D02*
G75*
D01*
G02X331086Y-289306I12500J0*
G01*
X-283433Y274066D02*
X-383433Y274066D01*
X-333433Y224066D02*
X-333433Y324066D01*
X-370933Y274066D02*
G75*
D01*
G02X-370933Y274066I37500J0*
G01*
X-358433Y274066D02*
G75*
D01*
G02X-358433Y274066I25000J0*
G01*
X-345933Y274066D02*
G75*
D01*
G02X-345933Y274066I12500J0*
G01*
G54D16*
X-12700Y-149820D03*
G54D17*
X-40640Y-147240D03*

M02*
