G04 Generated by Ultiboard 14.0 *
%FSLAX34Y34*%
%MOMM*%

%ADD10C,0.0001*%
%ADD11C,0.0013*%
%ADD12C,1.0160*%
%ADD13C,0.0933*%
%ADD14C,0.1270*%
%ADD15C,1.6350*%
%ADD16C,1.8034*%
%ADD17R,1.8034X1.8034*%
%ADD18C,2.0954*%
%ADD19R,1.1854X1.1854*%
%ADD20C,0.8466*%
%ADD21C,2.0320*%


G04 ColorRGB 00FF00 for the following layer *
%LNCopper Top*%
%LPD*%
G54D10*
G36*
X22448Y111760D02*
G75*
D01*
G02X22448Y111760I8032J0*
G01*
D02*
G37*
G36*
X-150272Y-208280D02*
G75*
D01*
G02X-150272Y-208280I8032J0*
G01*
D02*
G37*
G54D11*
X22448Y111760D02*
G75*
D01*
G02X22448Y111760I8032J0*
G01*
X-150272Y-208280D02*
G75*
D01*
G02X-150272Y-208280I8032J0*
G01*
G54D12*
X-76200Y208280D02*
X-142240Y208280D01*
X-76200Y137160D02*
X-81280Y132080D01*
X-142240Y132080D01*
X-50800Y208280D02*
X-50800Y137160D01*
X-162560Y172720D02*
X-50800Y172720D01*
X-40640Y-223520D02*
X-45720Y-228600D01*
X-45720Y-233680D01*
X-40640Y-157480D02*
X-40640Y-223520D01*
X-76200Y86360D02*
X-76200Y137160D01*
X-30480Y40640D02*
X-76200Y86360D01*
X-71120Y-228600D02*
X-76200Y-223520D01*
X-76200Y-152400D02*
X-91440Y-137160D01*
X177800Y76200D02*
X172720Y76200D01*
X-91440Y-137160D02*
X-96520Y-137160D01*
X-76200Y-223520D02*
X-76200Y-152400D01*
X-71120Y-228600D02*
X-71120Y-233680D01*
X-25400Y40640D02*
X-30480Y40640D01*
X177800Y50800D02*
X165100Y50800D01*
X-20320Y40640D02*
X-25400Y40640D01*
X149860Y76200D02*
X88900Y15240D01*
X-20320Y15240D01*
X172720Y76200D02*
X149860Y76200D01*
X-42436Y216644D02*
X141496Y216644D01*
X-42436Y216644D02*
X-50800Y208280D01*
X-50800Y197068D01*
X116404Y190500D02*
X127000Y179904D01*
X127000Y114300D02*
X139700Y101600D01*
X177800Y101600D01*
X127000Y179904D02*
X127000Y114300D01*
X-40640Y106680D02*
X-25400Y121920D01*
X-40640Y106680D02*
X-40640Y83820D01*
X-25400Y180340D02*
X-15240Y190500D01*
X116404Y190500D01*
X-25400Y121920D02*
X-25400Y180340D01*
X140752Y-162560D02*
X-40640Y-162560D01*
X-40640Y-157480D02*
X-40640Y-68580D01*
X-33020Y-60960D02*
X-20320Y-60960D01*
X-40640Y-68580D02*
X-33020Y-60960D01*
X-20320Y-35560D02*
X-20320Y-60960D01*
X-71120Y-35124D02*
X-71120Y50800D01*
X-96520Y-35560D02*
X-20320Y-35560D01*
X-96520Y-35560D02*
X-96520Y-60960D01*
X177800Y0D02*
X149860Y0D01*
X96520Y-108784D02*
X93544Y-111760D01*
X165100Y50800D02*
X96520Y-17780D01*
X93544Y-111760D02*
X-20320Y-111760D01*
X96520Y-17780D02*
X96520Y-108784D01*
X116840Y-134184D02*
X113864Y-137160D01*
X-20320Y-137160D01*
X124460Y-25400D02*
X116840Y-33020D01*
X177800Y-25400D02*
X124460Y-25400D01*
X116840Y-33020D02*
X116840Y-134184D01*
X144780Y-158532D02*
X140752Y-162560D01*
X152400Y-76200D02*
X144780Y-83820D01*
X144780Y-158532D01*
X177800Y-76200D02*
X152400Y-76200D01*
X177800Y-50800D02*
X149860Y-50800D01*
X195144Y248920D02*
X203200Y240864D01*
X149860Y248920D02*
X195144Y248920D01*
X203200Y240864D02*
X203200Y203200D01*
X141496Y216644D02*
X147320Y210820D01*
X147320Y136108D02*
X156428Y127000D01*
X177800Y127000D01*
X147320Y210820D02*
X147320Y136108D01*
X-187960Y-27940D02*
X-187960Y-35560D01*
X-187960Y-68580D02*
X-187960Y-60960D01*
X-170180Y-86360D02*
X-187960Y-68580D01*
X45720Y-10160D02*
X-20320Y-10160D01*
X66040Y-35560D02*
X66040Y-30480D01*
X66040Y-60960D02*
X66040Y-66040D01*
X45720Y-86360D01*
X-20320Y-86360D01*
X66040Y-30480D02*
X45720Y-10160D01*
X-170180Y-10160D02*
X-187960Y-27940D01*
X-170180Y-10160D02*
X-96520Y-10160D01*
X-170180Y-86360D02*
X-96520Y-86360D01*
X-71120Y50800D02*
X-93980Y73660D01*
X-175260Y160020D02*
X-162560Y172720D01*
X-161072Y73660D02*
X-175260Y87848D01*
X-93980Y73660D02*
X-161072Y73660D01*
X-175260Y87848D02*
X-175260Y160020D01*
G54D13*
X18316Y-199580D02*
X18316Y-189580D01*
X22298Y-189580D01*
X24289Y-191580D01*
X24289Y-192580D01*
X22298Y-194580D01*
X18316Y-194580D01*
X19311Y-194580D02*
X24289Y-199580D01*
X28271Y-192580D02*
X31258Y-192580D01*
X32253Y-193580D01*
X32253Y-198580D01*
X31258Y-199580D01*
X28271Y-199580D01*
X27276Y-198580D01*
X27276Y-196580D01*
X28271Y-195580D01*
X32253Y-195580D01*
X32253Y-198580D02*
X33249Y-199580D01*
X36236Y-197580D02*
X38227Y-199580D01*
X40218Y-199580D01*
X42209Y-197580D01*
X36236Y-194580D01*
X38227Y-192580D01*
X40218Y-192580D01*
X42209Y-194580D01*
X45196Y-197580D02*
X47187Y-199580D01*
X49178Y-199580D01*
X51169Y-197580D01*
X51169Y-194580D01*
X49178Y-192580D01*
X47187Y-192580D01*
X45196Y-194580D01*
X45196Y-202580D02*
X45196Y-192580D01*
X54156Y-197580D02*
X56147Y-199580D01*
X58138Y-199580D01*
X60129Y-197580D01*
X60129Y-195580D01*
X58138Y-193580D01*
X56147Y-193580D01*
X54156Y-195580D01*
X54156Y-189580D02*
X54156Y-199580D01*
X66102Y-199580D02*
X66102Y-193580D01*
X66102Y-191580D02*
X66102Y-190580D01*
X73071Y-192580D02*
X76058Y-192580D01*
X77053Y-193580D01*
X77053Y-198580D01*
X76058Y-199580D01*
X73071Y-199580D01*
X72076Y-198580D01*
X72076Y-196580D01*
X73071Y-195580D01*
X77053Y-195580D01*
X77053Y-198580D02*
X78049Y-199580D01*
X81036Y-199580D02*
X81036Y-193580D01*
X81036Y-192580D01*
X81036Y-193580D02*
X82031Y-192580D01*
X84022Y-192580D01*
X85018Y-193580D01*
X85018Y-199580D01*
X99951Y-190580D02*
X100947Y-189580D01*
X102938Y-189580D01*
X104929Y-191580D01*
X104929Y-193580D01*
X103933Y-194580D01*
X104929Y-195580D01*
X104929Y-197580D01*
X102938Y-199580D01*
X100947Y-199580D01*
X99951Y-198580D01*
X100947Y-194580D02*
X103933Y-194580D01*
X4876Y-213580D02*
X4876Y-203580D01*
X8858Y-203580D01*
X10849Y-205580D01*
X10849Y-206580D01*
X8858Y-208580D01*
X4876Y-208580D01*
X13836Y-211580D02*
X15827Y-213580D01*
X17818Y-213580D01*
X19809Y-211580D01*
X19809Y-208580D01*
X17818Y-206580D01*
X15827Y-206580D01*
X13836Y-208580D01*
X13836Y-211580D01*
X22796Y-206580D02*
X23791Y-213580D01*
X25782Y-210580D01*
X27773Y-213580D01*
X28769Y-206580D01*
X37729Y-211580D02*
X35738Y-213580D01*
X33747Y-213580D01*
X31756Y-211580D01*
X31756Y-208580D01*
X33747Y-206580D01*
X35738Y-206580D01*
X37729Y-208580D01*
X36733Y-209580D01*
X31756Y-209580D01*
X40716Y-209580D02*
X43702Y-206580D01*
X44698Y-206580D01*
X46689Y-208580D01*
X40716Y-213580D02*
X40716Y-206580D01*
X64609Y-213580D02*
X59631Y-205580D01*
X59631Y-204580D01*
X60627Y-203580D01*
X62618Y-203580D01*
X63613Y-204580D01*
X63613Y-205580D01*
X58636Y-210580D01*
X58636Y-212580D01*
X59631Y-213580D01*
X61622Y-213580D01*
X64609Y-209580D01*
X76556Y-213580D02*
X76556Y-203580D01*
X79542Y-208580D01*
X82529Y-203580D01*
X82529Y-213580D01*
X85516Y-211580D02*
X87507Y-213580D01*
X89498Y-213580D01*
X91489Y-211580D01*
X91489Y-208580D01*
X89498Y-206580D01*
X87507Y-206580D01*
X85516Y-208580D01*
X85516Y-211580D01*
X99453Y-212580D02*
X98458Y-213580D01*
X97462Y-212580D01*
X97462Y-203580D01*
X95471Y-206580D02*
X99453Y-206580D01*
X103436Y-211580D02*
X105427Y-213580D01*
X107418Y-213580D01*
X109409Y-211580D01*
X109409Y-208580D01*
X107418Y-206580D01*
X105427Y-206580D01*
X103436Y-208580D01*
X103436Y-211580D01*
X112396Y-209580D02*
X115382Y-206580D01*
X116378Y-206580D01*
X118369Y-208580D01*
X112396Y-213580D02*
X112396Y-206580D01*
X13836Y-225580D02*
X15827Y-227580D01*
X17818Y-227580D01*
X19809Y-225580D01*
X13836Y-219580D01*
X15827Y-217580D01*
X17818Y-217580D01*
X19809Y-219580D01*
X22796Y-222580D02*
X24787Y-220580D01*
X26778Y-220580D01*
X28769Y-222580D01*
X28769Y-227580D01*
X22796Y-217580D02*
X22796Y-227580D01*
X34742Y-227580D02*
X34742Y-221580D01*
X34742Y-219580D02*
X34742Y-218580D01*
X46689Y-225580D02*
X44698Y-227580D01*
X42707Y-227580D01*
X40716Y-225580D01*
X40716Y-222580D01*
X42707Y-220580D01*
X44698Y-220580D01*
X46689Y-222580D01*
X45693Y-223580D01*
X40716Y-223580D01*
X50671Y-217580D02*
X50671Y-225580D01*
X52662Y-227580D01*
X64609Y-225580D02*
X62618Y-227580D01*
X60627Y-227580D01*
X58636Y-225580D01*
X58636Y-223580D01*
X60627Y-221580D01*
X62618Y-221580D01*
X64609Y-223580D01*
X64609Y-217580D02*
X64609Y-227580D01*
X76556Y-220580D02*
X79542Y-227580D01*
X82529Y-220580D01*
X86511Y-219580D02*
X88502Y-217580D01*
X88502Y-227580D01*
X85516Y-227580D02*
X91489Y-227580D01*
X97462Y-227580D02*
X97462Y-226580D01*
X103436Y-219580D02*
X105427Y-217580D01*
X107418Y-217580D01*
X109409Y-219580D01*
X109409Y-225580D01*
X107418Y-227580D01*
X105427Y-227580D01*
X103436Y-225580D01*
X103436Y-219580D01*
X109409Y-219580D02*
X103436Y-225580D01*
X27276Y-241580D02*
X31258Y-241580D01*
X33249Y-239580D01*
X33249Y-233580D01*
X31258Y-231580D01*
X27276Y-231580D01*
X28271Y-231580D02*
X28271Y-241580D01*
X42209Y-239580D02*
X40218Y-241580D01*
X38227Y-241580D01*
X36236Y-239580D01*
X36236Y-236580D01*
X38227Y-234580D01*
X40218Y-234580D01*
X42209Y-236580D01*
X41213Y-237580D01*
X36236Y-237580D01*
X45196Y-239580D02*
X47187Y-241580D01*
X49178Y-241580D01*
X51169Y-239580D01*
X45196Y-236580D01*
X47187Y-234580D01*
X49178Y-234580D01*
X51169Y-236580D01*
X57142Y-241580D02*
X57142Y-235580D01*
X57142Y-233580D02*
X57142Y-232580D01*
X63116Y-242580D02*
X65107Y-244580D01*
X67098Y-244580D01*
X69089Y-242580D01*
X69089Y-239580D01*
X69089Y-236580D01*
X67098Y-234580D01*
X65107Y-234580D01*
X63116Y-236580D01*
X63116Y-239580D01*
X65107Y-241580D01*
X67098Y-241580D01*
X69089Y-239580D01*
X72076Y-241580D02*
X72076Y-235580D01*
X72076Y-234580D01*
X72076Y-235580D02*
X73071Y-234580D01*
X75062Y-234580D01*
X76058Y-235580D01*
X76058Y-241580D01*
X87009Y-239580D02*
X85018Y-241580D01*
X83027Y-241580D01*
X81036Y-239580D01*
X81036Y-236580D01*
X83027Y-234580D01*
X85018Y-234580D01*
X87009Y-236580D01*
X86013Y-237580D01*
X81036Y-237580D01*
X95969Y-239580D02*
X93978Y-241580D01*
X91987Y-241580D01*
X89996Y-239580D01*
X89996Y-237580D01*
X91987Y-235580D01*
X93978Y-235580D01*
X95969Y-237580D01*
X95969Y-231580D02*
X95969Y-241580D01*
X36236Y-253580D02*
X38227Y-255580D01*
X40218Y-255580D01*
X42209Y-253580D01*
X42209Y-251580D01*
X40218Y-249580D01*
X38227Y-249580D01*
X36236Y-251580D01*
X36236Y-245580D02*
X36236Y-255580D01*
X45196Y-258580D02*
X46191Y-258580D01*
X51169Y-248580D01*
X45196Y-248580D02*
X48182Y-254580D01*
X66102Y-255580D02*
X66102Y-245580D01*
X63116Y-245580D02*
X69089Y-245580D01*
X72076Y-255580D02*
X76058Y-255580D01*
X78049Y-253580D01*
X78049Y-247580D01*
X76058Y-245580D01*
X72076Y-245580D01*
X73071Y-245580D02*
X73071Y-255580D01*
X81036Y-255580D02*
X81036Y-245580D01*
X87009Y-255580D01*
X87009Y-245580D01*
G54D14*
X-233433Y-289306D02*
X-233433Y-232969D01*
X-233433Y-289306D02*
X-185731Y-289306D01*
X243586Y-289306D02*
X195884Y-289306D01*
X243586Y-289306D02*
X243586Y-232969D01*
X243586Y274066D02*
X243586Y217729D01*
X243586Y274066D02*
X195884Y274066D01*
X-233433Y274066D02*
X-185731Y274066D01*
X-233433Y274066D02*
X-233433Y217729D01*
X-283433Y-289306D02*
X-383433Y-289306D01*
X-333433Y-339306D02*
X-333433Y-239306D01*
X-370933Y-289306D02*
G75*
D01*
G02X-370933Y-289306I37500J0*
G01*
X293586Y-289306D02*
X393586Y-289306D01*
X343586Y-339306D02*
X343586Y-239306D01*
X306086Y-289306D02*
G75*
D01*
G02X306086Y-289306I37500J0*
G01*
X331086Y-289306D02*
G75*
D01*
G02X331086Y-289306I12500J0*
G01*
X-283433Y274066D02*
X-383433Y274066D01*
X-333433Y224066D02*
X-333433Y324066D01*
X-370933Y274066D02*
G75*
D01*
G02X-370933Y274066I37500J0*
G01*
X-358433Y274066D02*
G75*
D01*
G02X-358433Y274066I25000J0*
G01*
X-345933Y274066D02*
G75*
D01*
G02X-345933Y274066I12500J0*
G01*
G54D15*
X-40640Y83820D03*
X149860Y0D03*
X149860Y-50800D03*
X149860Y248920D03*
G54D16*
X203200Y-127000D03*
X177800Y-228600D03*
X177800Y-203200D03*
X177800Y-177800D03*
X177800Y-152400D03*
X177800Y-127000D03*
X177800Y-101600D03*
X177800Y-76200D03*
X177800Y-50800D03*
X177800Y-25400D03*
X177800Y0D03*
X177800Y25400D03*
X177800Y50800D03*
X177800Y76200D03*
X177800Y101600D03*
X177800Y127000D03*
X177800Y152400D03*
X177800Y177800D03*
X177800Y203200D03*
X177800Y228600D03*
X203200Y-254000D03*
X203200Y-228600D03*
X203200Y-203200D03*
X203200Y-177800D03*
X203200Y-152400D03*
X203200Y-101600D03*
X203200Y-76200D03*
X203200Y-50800D03*
X203200Y-25400D03*
X203200Y0D03*
X203200Y25400D03*
X203200Y50800D03*
X203200Y76200D03*
X203200Y101600D03*
X203200Y127000D03*
X203200Y152400D03*
X203200Y177800D03*
X203200Y203200D03*
X203200Y228600D03*
X-20320Y-35560D03*
X-96520Y-137160D03*
X-20320Y-86360D03*
X-20320Y-111760D03*
X-20320Y-60960D03*
X-20320Y-10160D03*
X-20320Y15240D03*
X-20320Y40640D03*
X-96520Y15240D03*
X-96520Y-60960D03*
X-96520Y-86360D03*
X-96520Y-111760D03*
X-96520Y-10160D03*
X-96520Y-35560D03*
X-96520Y40640D03*
G54D17*
X177800Y-254000D03*
X-20320Y-137160D03*
G54D18*
X-76200Y208280D03*
X-50800Y208280D03*
X-76200Y137160D03*
X-50800Y137160D03*
X-71120Y-233680D03*
X-45720Y-233680D03*
X66040Y-60960D03*
X66040Y-35560D03*
X-187960Y-60960D03*
X-187960Y-35560D03*
G54D19*
X-142240Y132080D03*
G54D20*
X-148167Y126153D02*
X-136313Y126153D01*
X-136313Y138007D01*
X-148167Y138007D01*
X-148167Y126153D01*D02*
G54D21*
X-142240Y208280D03*

M02*
