G04 Generated by Ultiboard 14.0 *
%FSLAX34Y34*%
%MOMM*%

%ADD10C,0.0001*%
%ADD11C,0.0100*%
%ADD12C,0.1000*%
%ADD13C,0.0010*%
%ADD14C,0.1270*%


G04 ColorRGB 000000 for the following layer *
%LNDrill Symbols-Copper Top-Copper Bottom*%
%LPD*%
G54D11*
X-43640Y83820D02*
X-37640Y83820D01*
X-40640Y80820D02*
X-40640Y86820D01*
X200057Y-130143D02*
X206343Y-123857D01*
X200057Y-123857D02*
X206343Y-130143D01*
X174657Y-225457D02*
X180943Y-231743D01*
X174657Y-231743D02*
X180943Y-225457D01*
X174657Y-200057D02*
X180943Y-206343D01*
X174657Y-206343D02*
X180943Y-200057D01*
X174657Y-174657D02*
X180943Y-180943D01*
X174657Y-180943D02*
X180943Y-174657D01*
X174657Y-149257D02*
X180943Y-155543D01*
X174657Y-155543D02*
X180943Y-149257D01*
X174657Y-130143D02*
X180943Y-123857D01*
X174657Y-123857D02*
X180943Y-130143D01*
X174657Y-104743D02*
X180943Y-98457D01*
X174657Y-98457D02*
X180943Y-104743D01*
X174657Y-79343D02*
X180943Y-73057D01*
X174657Y-73057D02*
X180943Y-79343D01*
X174657Y-53943D02*
X180943Y-47657D01*
X174657Y-47657D02*
X180943Y-53943D01*
X174657Y-28543D02*
X180943Y-22257D01*
X174657Y-22257D02*
X180943Y-28543D01*
X174657Y-3143D02*
X180943Y3143D01*
X174657Y3143D02*
X180943Y-3143D01*
X174657Y28543D02*
X180943Y22257D01*
X174657Y22257D02*
X180943Y28543D01*
X174657Y47657D02*
X180943Y53943D01*
X174657Y53943D02*
X180943Y47657D01*
X174657Y73057D02*
X180943Y79343D01*
X174657Y79343D02*
X180943Y73057D01*
X174657Y104743D02*
X180943Y98457D01*
X174657Y98457D02*
X180943Y104743D01*
X174657Y123857D02*
X180943Y130143D01*
X174657Y130143D02*
X180943Y123857D01*
X174657Y155543D02*
X180943Y149257D01*
X174657Y149257D02*
X180943Y155543D01*
X174657Y180943D02*
X180943Y174657D01*
X174657Y174657D02*
X180943Y180943D01*
X174657Y200057D02*
X180943Y206343D01*
X174657Y206343D02*
X180943Y200057D01*
X174657Y225457D02*
X180943Y231743D01*
X174657Y231743D02*
X180943Y225457D01*
X200057Y-250857D02*
X206343Y-257143D01*
X200057Y-257143D02*
X206343Y-250857D01*
X200057Y-225457D02*
X206343Y-231743D01*
X200057Y-231743D02*
X206343Y-225457D01*
X200057Y-200057D02*
X206343Y-206343D01*
X200057Y-206343D02*
X206343Y-200057D01*
X200057Y-180943D02*
X206343Y-174657D01*
X200057Y-174657D02*
X206343Y-180943D01*
X200057Y-149257D02*
X206343Y-155543D01*
X200057Y-155543D02*
X206343Y-149257D01*
X200057Y-104743D02*
X206343Y-98457D01*
X200057Y-98457D02*
X206343Y-104743D01*
X200057Y-73057D02*
X206343Y-79343D01*
X200057Y-79343D02*
X206343Y-73057D01*
X200057Y-53943D02*
X206343Y-47657D01*
X200057Y-47657D02*
X206343Y-53943D01*
X200057Y-28543D02*
X206343Y-22257D01*
X200057Y-22257D02*
X206343Y-28543D01*
X200057Y-3143D02*
X206343Y3143D01*
X200057Y3143D02*
X206343Y-3143D01*
X200057Y28543D02*
X206343Y22257D01*
X200057Y22257D02*
X206343Y28543D01*
X200057Y47657D02*
X206343Y53943D01*
X200057Y53943D02*
X206343Y47657D01*
X200057Y73057D02*
X206343Y79343D01*
X200057Y79343D02*
X206343Y73057D01*
X200057Y104743D02*
X206343Y98457D01*
X200057Y98457D02*
X206343Y104743D01*
X200057Y123857D02*
X206343Y130143D01*
X200057Y130143D02*
X206343Y123857D01*
X200057Y149257D02*
X206343Y155543D01*
X200057Y155543D02*
X206343Y149257D01*
X200057Y180943D02*
X206343Y174657D01*
X200057Y174657D02*
X206343Y180943D01*
X200057Y206343D02*
X206343Y200057D01*
X200057Y200057D02*
X206343Y206343D01*
X200057Y225457D02*
X206343Y231743D01*
X200057Y231743D02*
X206343Y225457D01*
X174657Y-250857D02*
X180943Y-257143D01*
X174657Y-257143D02*
X180943Y-250857D01*
X-23463Y-32417D02*
X-17177Y-38703D01*
X-23463Y-38703D02*
X-17177Y-32417D01*
X-99663Y-134017D02*
X-93377Y-140303D01*
X-99663Y-140303D02*
X-93377Y-134017D01*
X-23463Y-83217D02*
X-17177Y-89503D01*
X-23463Y-89503D02*
X-17177Y-83217D01*
X-23463Y-114903D02*
X-17177Y-108617D01*
X-23463Y-108617D02*
X-17177Y-114903D01*
X-23463Y-64103D02*
X-17177Y-57817D01*
X-23463Y-57817D02*
X-17177Y-64103D01*
X-23463Y-13303D02*
X-17177Y-7017D01*
X-23463Y-7017D02*
X-17177Y-13303D01*
X-23463Y12097D02*
X-17177Y18383D01*
X-23463Y18383D02*
X-17177Y12097D01*
X-23463Y37497D02*
X-17177Y43783D01*
X-23463Y43783D02*
X-17177Y37497D01*
X-99663Y18383D02*
X-93377Y12097D01*
X-99663Y12097D02*
X-93377Y18383D01*
X-99663Y-64103D02*
X-93377Y-57817D01*
X-99663Y-57817D02*
X-93377Y-64103D01*
X-99663Y-89503D02*
X-93377Y-83217D01*
X-99663Y-83217D02*
X-93377Y-89503D01*
X-99663Y-114903D02*
X-93377Y-108617D01*
X-99663Y-108617D02*
X-93377Y-114903D01*
X-99663Y-7017D02*
X-93377Y-13303D01*
X-99663Y-13303D02*
X-93377Y-7017D01*
X-99663Y-32417D02*
X-93377Y-38703D01*
X-99663Y-38703D02*
X-93377Y-32417D01*
X-99663Y37497D02*
X-93377Y43783D01*
X-99663Y43783D02*
X-93377Y37497D01*
X-23463Y-140303D02*
X-17177Y-134017D01*
X-23463Y-134017D02*
X-17177Y-140303D01*
X146860Y0D02*
X152860Y0D01*
X149860Y-3000D02*
X149860Y3000D01*
X146860Y-50800D02*
X152860Y-50800D01*
X149860Y-53800D02*
X149860Y-47800D01*
X-146473Y127847D02*
X-138007Y127847D01*
X-138007Y136313D01*
X-146473Y136313D01*
X-146473Y127847D01*
X-145383Y211423D02*
X-139097Y205137D01*
X-145383Y205137D02*
X-139097Y211423D01*
X146860Y248920D02*
X152860Y248920D01*
X149860Y245920D02*
X149860Y251920D01*
X540943Y50423D02*
X547229Y56709D01*
X540943Y56709D02*
X547229Y50423D01*
X539853Y90333D02*
X548319Y90333D01*
X548319Y98799D01*
X539853Y98799D01*
X539853Y90333D01*
X541086Y135566D02*
X547086Y135566D01*
X544086Y132566D02*
X544086Y138566D01*
G54D12*
X-82105Y208280D02*
G75*
D01*
G02X-82105Y208280I5905J0*
G01*
X-56705Y208280D02*
G75*
D01*
G02X-56705Y208280I5905J0*
G01*
X-82105Y137160D02*
G75*
D01*
G02X-82105Y137160I5905J0*
G01*
X-56705Y137160D02*
G75*
D01*
G02X-56705Y137160I5905J0*
G01*
X-77025Y-233680D02*
G75*
D01*
G02X-77025Y-233680I5905J0*
G01*
X-51625Y-233680D02*
G75*
D01*
G02X-51625Y-233680I5905J0*
G01*
X60135Y-60960D02*
G75*
D01*
G02X60135Y-60960I5905J0*
G01*
X60135Y-35560D02*
G75*
D01*
G02X60135Y-35560I5905J0*
G01*
X-193865Y-60960D02*
G75*
D01*
G02X-193865Y-60960I5905J0*
G01*
X-193865Y-35560D02*
G75*
D01*
G02X-193865Y-35560I5905J0*
G01*
X538181Y12566D02*
G75*
D01*
G02X538181Y12566I5905J0*
G01*
X651753Y21137D02*
X658419Y25423D01*
X658419Y3995D01*
X648419Y3995D02*
X668419Y3995D01*
X688419Y3995D02*
X688419Y6137D01*
X711753Y21137D02*
X718419Y25423D01*
X718419Y3995D01*
X708419Y3995D02*
X728419Y3995D01*
X751753Y3995D02*
X745086Y3995D01*
X738419Y8280D01*
X738419Y12566D01*
X741753Y14709D01*
X738419Y16852D01*
X738419Y21137D01*
X745086Y25423D01*
X751753Y25423D01*
X758419Y21137D01*
X758419Y16852D01*
X755086Y14709D01*
X758419Y12566D01*
X758419Y8280D01*
X751753Y3995D01*
X741753Y14709D02*
X755086Y14709D01*
X771753Y21137D02*
X778419Y25423D01*
X778419Y3995D01*
X768419Y3995D02*
X788419Y3995D01*
X798419Y21137D02*
X805086Y25423D01*
X811753Y25423D01*
X818419Y21137D01*
X818419Y8280D01*
X811753Y3995D01*
X805086Y3995D01*
X798419Y8280D01*
X798419Y21137D01*
X818419Y21137D02*
X798419Y8280D01*
X932753Y21137D02*
X939419Y25423D01*
X939419Y3995D01*
X929419Y3995D02*
X949419Y3995D01*
X959419Y21137D02*
X966086Y25423D01*
X972753Y25423D01*
X979419Y21137D01*
X979419Y8280D01*
X972753Y3995D01*
X966086Y3995D01*
X959419Y8280D01*
X959419Y21137D01*
X979419Y21137D02*
X959419Y8280D01*
X1135419Y3995D02*
X1135419Y25423D01*
X1148753Y25423D01*
X1155419Y21137D01*
X1155419Y18995D01*
X1148753Y14709D01*
X1135419Y14709D01*
X1175419Y3995D02*
X1175419Y25423D01*
X1165419Y25423D02*
X1185419Y25423D01*
X1195419Y3995D02*
X1195419Y25423D01*
X1215419Y3995D02*
X1215419Y25423D01*
X1195419Y14709D02*
X1215419Y14709D01*
X1311419Y21137D02*
X1318086Y25423D01*
X1324753Y25423D01*
X1331419Y21137D01*
X1331419Y8280D01*
X1324753Y3995D01*
X1318086Y3995D01*
X1311419Y8280D01*
X1311419Y21137D01*
X1331419Y21137D02*
X1311419Y8280D01*
X1388086Y3995D02*
X1384753Y3995D01*
X1378086Y8280D01*
X1378086Y21137D01*
X1384753Y25423D01*
X1388086Y25423D01*
X1401419Y3995D02*
X1401419Y25423D01*
X1414753Y25423D01*
X1421419Y21137D01*
X1421419Y18995D01*
X1414753Y14709D01*
X1401419Y14709D01*
X1404753Y14709D02*
X1421419Y3995D01*
X1431419Y8280D02*
X1438086Y3995D01*
X1444753Y3995D01*
X1451419Y8280D01*
X1451419Y21137D01*
X1444753Y25423D01*
X1438086Y25423D01*
X1431419Y21137D01*
X1431419Y8280D01*
X1461419Y25423D02*
X1461419Y8280D01*
X1468086Y3995D01*
X1474753Y3995D01*
X1481419Y8280D01*
X1481419Y25423D01*
X1491419Y3995D02*
X1491419Y25423D01*
X1511419Y3995D01*
X1511419Y25423D01*
X1521419Y3995D02*
X1534753Y3995D01*
X1541419Y8280D01*
X1541419Y21137D01*
X1534753Y25423D01*
X1521419Y25423D01*
X1524753Y25423D02*
X1524753Y3995D01*
X1554753Y25423D02*
X1558086Y25423D01*
X1564753Y21137D01*
X1564753Y8280D01*
X1558086Y3995D01*
X1554753Y3995D01*
X648419Y62137D02*
X655086Y66423D01*
X661753Y66423D01*
X668419Y62137D01*
X668419Y49280D01*
X661753Y44995D01*
X655086Y44995D01*
X648419Y49280D01*
X648419Y62137D01*
X668419Y62137D02*
X648419Y49280D01*
X688419Y44995D02*
X688419Y47137D01*
X721753Y44995D02*
X715086Y44995D01*
X708419Y49280D01*
X708419Y53566D01*
X711753Y55709D01*
X708419Y57852D01*
X708419Y62137D01*
X715086Y66423D01*
X721753Y66423D01*
X728419Y62137D01*
X728419Y57852D01*
X725086Y55709D01*
X728419Y53566D01*
X728419Y49280D01*
X721753Y44995D01*
X711753Y55709D02*
X725086Y55709D01*
X751753Y44995D02*
X745086Y44995D01*
X738419Y49280D01*
X738419Y53566D01*
X741753Y55709D01*
X738419Y57852D01*
X738419Y62137D01*
X745086Y66423D01*
X751753Y66423D01*
X758419Y62137D01*
X758419Y57852D01*
X755086Y55709D01*
X758419Y53566D01*
X758419Y49280D01*
X751753Y44995D01*
X741753Y55709D02*
X755086Y55709D01*
X768419Y49280D02*
X775086Y44995D01*
X781753Y44995D01*
X788419Y49280D01*
X788419Y57852D01*
X788419Y62137D01*
X781753Y66423D01*
X775086Y66423D01*
X768419Y62137D01*
X768419Y57852D01*
X775086Y53566D01*
X781753Y53566D01*
X788419Y57852D01*
X798419Y62137D02*
X805086Y66423D01*
X811753Y66423D01*
X818419Y62137D01*
X818419Y49280D01*
X811753Y44995D01*
X805086Y44995D01*
X798419Y49280D01*
X798419Y62137D01*
X818419Y62137D02*
X798419Y49280D01*
X949419Y66423D02*
X929419Y66423D01*
X929419Y57852D01*
X942753Y57852D01*
X949419Y53566D01*
X949419Y49280D01*
X942753Y44995D01*
X929419Y44995D01*
X969419Y44995D02*
X969419Y55709D01*
X979419Y62137D01*
X979419Y66423D01*
X959419Y66423D01*
X959419Y62137D01*
X1135419Y44995D02*
X1135419Y66423D01*
X1148753Y66423D01*
X1155419Y62137D01*
X1155419Y59995D01*
X1148753Y55709D01*
X1135419Y55709D01*
X1175419Y44995D02*
X1175419Y66423D01*
X1165419Y66423D02*
X1185419Y66423D01*
X1195419Y44995D02*
X1195419Y66423D01*
X1215419Y44995D02*
X1215419Y66423D01*
X1195419Y55709D02*
X1215419Y55709D01*
X1311419Y62137D02*
X1318086Y66423D01*
X1324753Y66423D01*
X1331419Y62137D01*
X1331419Y49280D01*
X1324753Y44995D01*
X1318086Y44995D01*
X1311419Y49280D01*
X1311419Y62137D01*
X1331419Y62137D02*
X1311419Y49280D01*
X1388086Y44995D02*
X1384753Y44995D01*
X1378086Y49280D01*
X1378086Y62137D01*
X1384753Y66423D01*
X1388086Y66423D01*
X1401419Y44995D02*
X1401419Y66423D01*
X1414753Y66423D01*
X1421419Y62137D01*
X1421419Y59995D01*
X1414753Y55709D01*
X1401419Y55709D01*
X1404753Y55709D02*
X1421419Y44995D01*
X1431419Y49280D02*
X1438086Y44995D01*
X1444753Y44995D01*
X1451419Y49280D01*
X1451419Y62137D01*
X1444753Y66423D01*
X1438086Y66423D01*
X1431419Y62137D01*
X1431419Y49280D01*
X1461419Y66423D02*
X1461419Y49280D01*
X1468086Y44995D01*
X1474753Y44995D01*
X1481419Y49280D01*
X1481419Y66423D01*
X1491419Y44995D02*
X1491419Y66423D01*
X1511419Y44995D01*
X1511419Y66423D01*
X1521419Y44995D02*
X1534753Y44995D01*
X1541419Y49280D01*
X1541419Y62137D01*
X1534753Y66423D01*
X1521419Y66423D01*
X1524753Y66423D02*
X1524753Y44995D01*
X1554753Y66423D02*
X1558086Y66423D01*
X1564753Y62137D01*
X1564753Y49280D01*
X1558086Y44995D01*
X1554753Y44995D01*
X648419Y103137D02*
X655086Y107423D01*
X661753Y107423D01*
X668419Y103137D01*
X668419Y90280D01*
X661753Y85995D01*
X655086Y85995D01*
X648419Y90280D01*
X648419Y103137D01*
X668419Y103137D02*
X648419Y90280D01*
X688419Y85995D02*
X688419Y88137D01*
X721753Y85995D02*
X715086Y85995D01*
X708419Y90280D01*
X708419Y94566D01*
X711753Y96709D01*
X708419Y98852D01*
X708419Y103137D01*
X715086Y107423D01*
X721753Y107423D01*
X728419Y103137D01*
X728419Y98852D01*
X725086Y96709D01*
X728419Y94566D01*
X728419Y90280D01*
X721753Y85995D01*
X711753Y96709D02*
X725086Y96709D01*
X758419Y94566D02*
X738419Y94566D01*
X755086Y107423D01*
X755086Y85995D01*
X751753Y85995D02*
X758419Y85995D01*
X785086Y107423D02*
X775086Y107423D01*
X768419Y103137D01*
X768419Y94566D01*
X768419Y90280D01*
X775086Y85995D01*
X781753Y85995D01*
X788419Y90280D01*
X788419Y94566D01*
X781753Y98852D01*
X775086Y98852D01*
X768419Y94566D01*
X815086Y107423D02*
X805086Y107423D01*
X798419Y103137D01*
X798419Y94566D01*
X798419Y90280D01*
X805086Y85995D01*
X811753Y85995D01*
X818419Y90280D01*
X818419Y94566D01*
X811753Y98852D01*
X805086Y98852D01*
X798419Y94566D01*
X947753Y103137D02*
X954419Y107423D01*
X954419Y85995D01*
X944419Y85995D02*
X964419Y85995D01*
X1135419Y85995D02*
X1135419Y107423D01*
X1148753Y107423D01*
X1155419Y103137D01*
X1155419Y100995D01*
X1148753Y96709D01*
X1135419Y96709D01*
X1175419Y85995D02*
X1175419Y107423D01*
X1165419Y107423D02*
X1185419Y107423D01*
X1195419Y85995D02*
X1195419Y107423D01*
X1215419Y85995D02*
X1215419Y107423D01*
X1195419Y96709D02*
X1215419Y96709D01*
X1311419Y103137D02*
X1318086Y107423D01*
X1324753Y107423D01*
X1331419Y103137D01*
X1331419Y90280D01*
X1324753Y85995D01*
X1318086Y85995D01*
X1311419Y90280D01*
X1311419Y103137D01*
X1331419Y103137D02*
X1311419Y90280D01*
X1388086Y85995D02*
X1384753Y85995D01*
X1378086Y90280D01*
X1378086Y103137D01*
X1384753Y107423D01*
X1388086Y107423D01*
X1401419Y85995D02*
X1401419Y107423D01*
X1414753Y107423D01*
X1421419Y103137D01*
X1421419Y100995D01*
X1414753Y96709D01*
X1401419Y96709D01*
X1404753Y96709D02*
X1421419Y85995D01*
X1431419Y90280D02*
X1438086Y85995D01*
X1444753Y85995D01*
X1451419Y90280D01*
X1451419Y103137D01*
X1444753Y107423D01*
X1438086Y107423D01*
X1431419Y103137D01*
X1431419Y90280D01*
X1461419Y107423D02*
X1461419Y90280D01*
X1468086Y85995D01*
X1474753Y85995D01*
X1481419Y90280D01*
X1481419Y107423D01*
X1491419Y85995D02*
X1491419Y107423D01*
X1511419Y85995D01*
X1511419Y107423D01*
X1521419Y85995D02*
X1534753Y85995D01*
X1541419Y90280D01*
X1541419Y103137D01*
X1534753Y107423D01*
X1521419Y107423D01*
X1524753Y107423D02*
X1524753Y85995D01*
X1554753Y107423D02*
X1558086Y107423D01*
X1564753Y103137D01*
X1564753Y90280D01*
X1558086Y85995D01*
X1554753Y85995D01*
X648419Y144137D02*
X655086Y148423D01*
X661753Y148423D01*
X668419Y144137D01*
X668419Y131280D01*
X661753Y126995D01*
X655086Y126995D01*
X648419Y131280D01*
X648419Y144137D01*
X668419Y144137D02*
X648419Y131280D01*
X688419Y126995D02*
X688419Y129137D01*
X725086Y148423D02*
X715086Y148423D01*
X708419Y144137D01*
X708419Y135566D01*
X708419Y131280D01*
X715086Y126995D01*
X721753Y126995D01*
X728419Y131280D01*
X728419Y135566D01*
X721753Y139852D01*
X715086Y139852D01*
X708419Y135566D01*
X738419Y144137D02*
X745086Y148423D01*
X751753Y148423D01*
X758419Y144137D01*
X758419Y131280D01*
X751753Y126995D01*
X745086Y126995D01*
X738419Y131280D01*
X738419Y144137D01*
X758419Y144137D02*
X738419Y131280D01*
X768419Y144137D02*
X775086Y148423D01*
X781753Y148423D01*
X788419Y144137D01*
X788419Y131280D01*
X781753Y126995D01*
X775086Y126995D01*
X768419Y131280D01*
X768419Y144137D01*
X788419Y144137D02*
X768419Y131280D01*
X798419Y144137D02*
X805086Y148423D01*
X811753Y148423D01*
X818419Y144137D01*
X818419Y131280D01*
X811753Y126995D01*
X805086Y126995D01*
X798419Y131280D01*
X798419Y144137D01*
X818419Y144137D02*
X798419Y131280D01*
X964419Y135566D02*
X944419Y135566D01*
X961086Y148423D01*
X961086Y126995D01*
X957753Y126995D02*
X964419Y126995D01*
X1135419Y126995D02*
X1135419Y148423D01*
X1148753Y148423D01*
X1155419Y144137D01*
X1155419Y141995D01*
X1148753Y137709D01*
X1135419Y137709D01*
X1175419Y126995D02*
X1175419Y148423D01*
X1165419Y148423D02*
X1185419Y148423D01*
X1195419Y126995D02*
X1195419Y148423D01*
X1215419Y126995D02*
X1215419Y148423D01*
X1195419Y137709D02*
X1215419Y137709D01*
X1311419Y144137D02*
X1318086Y148423D01*
X1324753Y148423D01*
X1331419Y144137D01*
X1331419Y131280D01*
X1324753Y126995D01*
X1318086Y126995D01*
X1311419Y131280D01*
X1311419Y144137D01*
X1331419Y144137D02*
X1311419Y131280D01*
X1388086Y126995D02*
X1384753Y126995D01*
X1378086Y131280D01*
X1378086Y144137D01*
X1384753Y148423D01*
X1388086Y148423D01*
X1401419Y126995D02*
X1401419Y148423D01*
X1414753Y148423D01*
X1421419Y144137D01*
X1421419Y141995D01*
X1414753Y137709D01*
X1401419Y137709D01*
X1404753Y137709D02*
X1421419Y126995D01*
X1431419Y131280D02*
X1438086Y126995D01*
X1444753Y126995D01*
X1451419Y131280D01*
X1451419Y144137D01*
X1444753Y148423D01*
X1438086Y148423D01*
X1431419Y144137D01*
X1431419Y131280D01*
X1461419Y148423D02*
X1461419Y131280D01*
X1468086Y126995D01*
X1474753Y126995D01*
X1481419Y131280D01*
X1481419Y148423D01*
X1491419Y126995D02*
X1491419Y148423D01*
X1511419Y126995D01*
X1511419Y148423D01*
X1521419Y126995D02*
X1534753Y126995D01*
X1541419Y131280D01*
X1541419Y144137D01*
X1534753Y148423D01*
X1521419Y148423D01*
X1524753Y148423D02*
X1524753Y126995D01*
X1554753Y148423D02*
X1558086Y148423D01*
X1564753Y144137D01*
X1564753Y131280D01*
X1558086Y126995D01*
X1554753Y126995D01*
G04 ColorRGB 00FFFF for the following layer *
%LNBoard Outline*%
%LPD*%
G54D10*
G54D13*
X-228607Y-284480D02*
X238760Y-284480D01*
X238760Y269240D01*
X-228607Y269240D01*
X-228607Y-284480D01*
G54D14*
X-233433Y-289306D02*
X-233433Y-232969D01*
X-233433Y-289306D02*
X-185731Y-289306D01*
X243586Y-289306D02*
X195884Y-289306D01*
X243586Y-289306D02*
X243586Y-232969D01*
X243586Y274066D02*
X243586Y217729D01*
X243586Y274066D02*
X195884Y274066D01*
X-233433Y274066D02*
X-185731Y274066D01*
X-233433Y274066D02*
X-233433Y217729D01*
X-283433Y-289306D02*
X-383433Y-289306D01*
X-333433Y-339306D02*
X-333433Y-239306D01*
X-370933Y-289306D02*
G75*
D01*
G02X-370933Y-289306I37500J0*
G01*
X293586Y-289306D02*
X393586Y-289306D01*
X343586Y-339306D02*
X343586Y-239306D01*
X306086Y-289306D02*
G75*
D01*
G02X306086Y-289306I37500J0*
G01*
X331086Y-289306D02*
G75*
D01*
G02X331086Y-289306I12500J0*
G01*
X-283433Y274066D02*
X-383433Y274066D01*
X-333433Y224066D02*
X-333433Y324066D01*
X-370933Y274066D02*
G75*
D01*
G02X-370933Y274066I37500J0*
G01*
X-358433Y274066D02*
G75*
D01*
G02X-358433Y274066I25000J0*
G01*
X-345933Y274066D02*
G75*
D01*
G02X-345933Y274066I12500J0*
G01*
G04 ColorRGB 66FFCC for the following layer *
%LNLegend Description*%
%LPD*%
G54D12*
X448586Y-7934D02*
X1613586Y-7934D01*
X1613586Y279066D01*
X448586Y279066D01*
X448586Y-7934D01*
X639586Y197066D02*
X639586Y-7934D01*
X830586Y197066D02*
X830586Y-7934D01*
X1081586Y197066D02*
X1081586Y-7934D01*
X1272586Y197066D02*
X1272586Y-7934D01*
X1613586Y197066D02*
X1613586Y-7934D01*
X448586Y33066D02*
X1613586Y33066D01*
X448586Y74066D02*
X1613586Y74066D01*
X448586Y115066D02*
X1613586Y115066D01*
X448586Y156066D02*
X1613586Y156066D01*
X457419Y172280D02*
X464086Y167995D01*
X470753Y167995D01*
X477419Y172280D01*
X457419Y185137D01*
X464086Y189423D01*
X470753Y189423D01*
X477419Y185137D01*
X487419Y161566D02*
X490753Y161566D01*
X507419Y182995D01*
X487419Y182995D02*
X497419Y170137D01*
X517419Y167995D02*
X517419Y180852D01*
X517419Y182995D01*
X517419Y180852D02*
X520753Y182995D01*
X524086Y182995D01*
X527419Y180852D01*
X530753Y182995D01*
X534086Y182995D01*
X537419Y180852D01*
X537419Y167995D01*
X527419Y180852D02*
X527419Y167995D01*
X547419Y172280D02*
X554086Y167995D01*
X560753Y167995D01*
X567419Y172280D01*
X567419Y176566D01*
X560753Y180852D01*
X554086Y180852D01*
X547419Y176566D01*
X547419Y189423D02*
X547419Y167995D01*
X577419Y172280D02*
X584086Y167995D01*
X590753Y167995D01*
X597419Y172280D01*
X597419Y178709D01*
X590753Y182995D01*
X584086Y182995D01*
X577419Y178709D01*
X577419Y172280D01*
X610753Y189423D02*
X610753Y172280D01*
X617419Y167995D01*
X678419Y172280D02*
X685086Y167995D01*
X691753Y167995D01*
X698419Y172280D01*
X678419Y185137D01*
X685086Y189423D01*
X691753Y189423D01*
X698419Y185137D01*
X718419Y167995D02*
X718419Y180852D01*
X718419Y185137D02*
X718419Y187280D01*
X738419Y182995D02*
X758419Y182995D01*
X738419Y167995D01*
X758419Y167995D01*
X788419Y172280D02*
X781753Y167995D01*
X775086Y167995D01*
X768419Y172280D01*
X768419Y178709D01*
X775086Y182995D01*
X781753Y182995D01*
X788419Y178709D01*
X785086Y176566D01*
X768419Y176566D01*
X839419Y172280D02*
X846086Y167995D01*
X852753Y167995D01*
X859419Y172280D01*
X859419Y185137D01*
X852753Y189423D01*
X846086Y189423D01*
X839419Y185137D01*
X839419Y172280D01*
X852753Y172280D02*
X859419Y167995D01*
X869419Y182995D02*
X869419Y172280D01*
X876086Y167995D01*
X882753Y167995D01*
X889419Y172280D01*
X889419Y182995D01*
X889419Y172280D02*
X889419Y167995D01*
X902753Y182995D02*
X912753Y182995D01*
X916086Y180852D01*
X916086Y170137D01*
X912753Y167995D01*
X902753Y167995D01*
X899419Y170137D01*
X899419Y174423D01*
X902753Y176566D01*
X916086Y176566D01*
X916086Y170137D02*
X919419Y167995D01*
X929419Y167995D02*
X929419Y180852D01*
X929419Y182995D01*
X929419Y180852D02*
X932753Y182995D01*
X939419Y182995D01*
X942753Y180852D01*
X942753Y167995D01*
X976086Y170137D02*
X972753Y167995D01*
X969419Y170137D01*
X969419Y189423D01*
X962753Y182995D02*
X976086Y182995D01*
X999419Y167995D02*
X999419Y180852D01*
X999419Y185137D02*
X999419Y187280D01*
X1036086Y170137D02*
X1032753Y167995D01*
X1029419Y170137D01*
X1029419Y189423D01*
X1022753Y182995D02*
X1036086Y182995D01*
X1049419Y161566D02*
X1052753Y161566D01*
X1069419Y182995D01*
X1049419Y182995D02*
X1059419Y170137D01*
X1090419Y167995D02*
X1090419Y189423D01*
X1103753Y189423D01*
X1110419Y185137D01*
X1110419Y182995D01*
X1103753Y178709D01*
X1090419Y178709D01*
X1123753Y189423D02*
X1123753Y172280D01*
X1130419Y167995D01*
X1153753Y182995D02*
X1163753Y182995D01*
X1167086Y180852D01*
X1167086Y170137D01*
X1163753Y167995D01*
X1153753Y167995D01*
X1150419Y170137D01*
X1150419Y174423D01*
X1153753Y176566D01*
X1167086Y176566D01*
X1167086Y170137D02*
X1170419Y167995D01*
X1197086Y170137D02*
X1193753Y167995D01*
X1190419Y170137D01*
X1190419Y189423D01*
X1183753Y182995D02*
X1197086Y182995D01*
X1230419Y172280D02*
X1223753Y167995D01*
X1217086Y167995D01*
X1210419Y172280D01*
X1210419Y178709D01*
X1217086Y182995D01*
X1223753Y182995D01*
X1230419Y178709D01*
X1227086Y176566D01*
X1210419Y176566D01*
X1260419Y172280D02*
X1253753Y167995D01*
X1247086Y167995D01*
X1240419Y172280D01*
X1240419Y176566D01*
X1247086Y180852D01*
X1253753Y180852D01*
X1260419Y176566D01*
X1260419Y189423D02*
X1260419Y167995D01*
X1281419Y172280D02*
X1288086Y167995D01*
X1294753Y167995D01*
X1301419Y172280D01*
X1281419Y185137D01*
X1288086Y189423D01*
X1294753Y189423D01*
X1301419Y185137D01*
X1314753Y189423D02*
X1314753Y172280D01*
X1321419Y167995D01*
X1341419Y172280D02*
X1348086Y167995D01*
X1354753Y167995D01*
X1361419Y172280D01*
X1361419Y178709D01*
X1354753Y182995D01*
X1348086Y182995D01*
X1341419Y178709D01*
X1341419Y172280D01*
X1388086Y170137D02*
X1384753Y167995D01*
X1381419Y170137D01*
X1381419Y189423D01*
X1374753Y182995D02*
X1388086Y182995D01*
X1431419Y189423D02*
X1431419Y167995D01*
X1451419Y167995D01*
X1481419Y172280D02*
X1474753Y167995D01*
X1468086Y167995D01*
X1461419Y172280D01*
X1461419Y178709D01*
X1468086Y182995D01*
X1474753Y182995D01*
X1481419Y178709D01*
X1478086Y176566D01*
X1461419Y176566D01*
X1491419Y167995D02*
X1491419Y180852D01*
X1491419Y182995D01*
X1491419Y180852D02*
X1494753Y182995D01*
X1501419Y182995D01*
X1504753Y180852D01*
X1504753Y167995D01*
X1521419Y165852D02*
X1528086Y161566D01*
X1534753Y161566D01*
X1541419Y165852D01*
X1541419Y172280D01*
X1541419Y178709D01*
X1534753Y182995D01*
X1528086Y182995D01*
X1521419Y178709D01*
X1521419Y172280D01*
X1528086Y167995D01*
X1534753Y167995D01*
X1541419Y172280D01*
X1568086Y170137D02*
X1564753Y167995D01*
X1561419Y170137D01*
X1561419Y189423D01*
X1554753Y182995D02*
X1568086Y182995D01*
X1581419Y178709D02*
X1588086Y182995D01*
X1594753Y182995D01*
X1601419Y178709D01*
X1601419Y167995D01*
X1581419Y189423D02*
X1581419Y167995D01*
X448586Y197066D02*
X1613586Y197066D01*
X749419Y208995D02*
X749419Y221852D01*
X756086Y230423D01*
X762753Y230423D01*
X769419Y221852D01*
X769419Y208995D01*
X749419Y215423D02*
X769419Y215423D01*
X782753Y230423D02*
X782753Y213280D01*
X789419Y208995D01*
X812753Y230423D02*
X812753Y213280D01*
X819419Y208995D01*
X869419Y223995D02*
X869419Y213280D01*
X876086Y208995D01*
X882753Y208995D01*
X889419Y213280D01*
X889419Y223995D01*
X889419Y213280D02*
X889419Y208995D01*
X899419Y208995D02*
X899419Y221852D01*
X899419Y223995D01*
X899419Y221852D02*
X902753Y223995D01*
X909419Y223995D01*
X912753Y221852D01*
X912753Y208995D01*
X939419Y208995D02*
X939419Y221852D01*
X939419Y226137D02*
X939419Y228280D01*
X976086Y211137D02*
X972753Y208995D01*
X969419Y211137D01*
X969419Y230423D01*
X962753Y223995D02*
X976086Y223995D01*
X989419Y213280D02*
X996086Y208995D01*
X1002753Y208995D01*
X1009419Y213280D01*
X989419Y219709D01*
X996086Y223995D01*
X1002753Y223995D01*
X1009419Y219709D01*
X1052753Y223995D02*
X1062753Y223995D01*
X1066086Y221852D01*
X1066086Y211137D01*
X1062753Y208995D01*
X1052753Y208995D01*
X1049419Y211137D01*
X1049419Y215423D01*
X1052753Y217566D01*
X1066086Y217566D01*
X1066086Y211137D02*
X1069419Y208995D01*
X1079419Y217566D02*
X1089419Y223995D01*
X1092753Y223995D01*
X1099419Y219709D01*
X1079419Y208995D02*
X1079419Y223995D01*
X1129419Y213280D02*
X1122753Y208995D01*
X1116086Y208995D01*
X1109419Y213280D01*
X1109419Y219709D01*
X1116086Y223995D01*
X1122753Y223995D01*
X1129419Y219709D01*
X1126086Y217566D01*
X1109419Y217566D01*
X1179419Y208995D02*
X1179419Y221852D01*
X1179419Y226137D02*
X1179419Y228280D01*
X1199419Y208995D02*
X1199419Y221852D01*
X1199419Y223995D01*
X1199419Y221852D02*
X1202753Y223995D01*
X1209419Y223995D01*
X1212753Y221852D01*
X1212753Y208995D01*
X1259419Y208995D02*
X1259419Y221852D01*
X1259419Y223995D01*
X1259419Y221852D02*
X1262753Y223995D01*
X1266086Y223995D01*
X1269419Y221852D01*
X1272753Y223995D01*
X1276086Y223995D01*
X1279419Y221852D01*
X1279419Y208995D01*
X1269419Y221852D02*
X1269419Y208995D01*
X1289419Y208995D02*
X1289419Y221852D01*
X1289419Y223995D01*
X1289419Y221852D02*
X1292753Y223995D01*
X1296086Y223995D01*
X1299419Y221852D01*
X1302753Y223995D01*
X1306086Y223995D01*
X1309419Y221852D01*
X1309419Y208995D01*
X1299419Y221852D02*
X1299419Y208995D01*
X448586Y238066D02*
X1613586Y238066D01*
X854419Y249995D02*
X867753Y249995D01*
X874419Y254280D01*
X874419Y267137D01*
X867753Y271423D01*
X854419Y271423D01*
X857753Y271423D02*
X857753Y249995D01*
X884419Y258566D02*
X894419Y264995D01*
X897753Y264995D01*
X904419Y260709D01*
X884419Y249995D02*
X884419Y264995D01*
X924419Y249995D02*
X924419Y262852D01*
X924419Y267137D02*
X924419Y269280D01*
X947753Y271423D02*
X947753Y254280D01*
X954419Y249995D01*
X977753Y271423D02*
X977753Y254280D01*
X984419Y249995D01*
X1034419Y271423D02*
X1034419Y249995D01*
X1054419Y249995D01*
X1084419Y254280D02*
X1077753Y249995D01*
X1071086Y249995D01*
X1064419Y254280D01*
X1064419Y260709D01*
X1071086Y264995D01*
X1077753Y264995D01*
X1084419Y260709D01*
X1081086Y258566D01*
X1064419Y258566D01*
X1094419Y247852D02*
X1101086Y243566D01*
X1107753Y243566D01*
X1114419Y247852D01*
X1114419Y254280D01*
X1114419Y260709D01*
X1107753Y264995D01*
X1101086Y264995D01*
X1094419Y260709D01*
X1094419Y254280D01*
X1101086Y249995D01*
X1107753Y249995D01*
X1114419Y254280D01*
X1144419Y254280D02*
X1137753Y249995D01*
X1131086Y249995D01*
X1124419Y254280D01*
X1124419Y260709D01*
X1131086Y264995D01*
X1137753Y264995D01*
X1144419Y260709D01*
X1141086Y258566D01*
X1124419Y258566D01*
X1154419Y249995D02*
X1154419Y262852D01*
X1154419Y264995D01*
X1154419Y262852D02*
X1157753Y264995D01*
X1164419Y264995D01*
X1167753Y262852D01*
X1167753Y249995D01*
X1204419Y254280D02*
X1197753Y249995D01*
X1191086Y249995D01*
X1184419Y254280D01*
X1184419Y258566D01*
X1191086Y262852D01*
X1197753Y262852D01*
X1204419Y258566D01*
X1204419Y271423D02*
X1204419Y249995D01*

M02*
