G04 Generated by Ultiboard 14.0 *
%FSLAX34Y34*%
%MOMM*%

%ADD10C,0.0001*%
%ADD11C,1.0160*%
%ADD12C,0.0933*%
%ADD13C,0.1270*%
%ADD14C,1.6350*%
%ADD15C,1.8034*%
%ADD16R,1.8034X1.8034*%
%ADD17C,2.0954*%
%ADD18R,1.1854X1.1854*%
%ADD19C,0.8466*%
%ADD20C,2.0320*%


G04 ColorRGB 0000FF for the following layer *
%LNCopper Bottom*%
%LPD*%
G54D10*
G54D11*
X-109220Y-137160D02*
X-96520Y-137160D01*
X-116840Y-129540D02*
X-109220Y-137160D01*
X-116840Y238760D02*
X-116840Y-129540D01*
X132080Y-50800D02*
X124460Y-58420D01*
X115352Y-157480D02*
X-43180Y-157480D01*
X124460Y-58420D02*
X124460Y-148372D01*
X115352Y-157480D01*
X-53340Y-157480D02*
X-43180Y-157480D01*
X-60960Y-149860D02*
X-53340Y-157480D01*
X-68580Y-111760D02*
X-60960Y-119380D01*
X-96520Y-111760D02*
X-68580Y-111760D01*
X-60960Y-119380D02*
X-60960Y-149860D01*
X-106680Y248920D02*
X-116840Y238760D01*
X-17780Y68580D02*
X2540Y48260D01*
X2540Y10904D02*
X13444Y0D01*
X2540Y48260D02*
X2540Y10904D01*
X13444Y0D02*
X149860Y0D01*
X149860Y-50800D02*
X132080Y-50800D01*
X149860Y248920D02*
X-106680Y248920D01*
X-73660Y15240D02*
X-96520Y15240D01*
X-27940Y106680D02*
X-17780Y96520D01*
X-17780Y68580D01*
X-86360Y106680D02*
X-96520Y96520D01*
X-96520Y40640D01*
X-27940Y106680D02*
X-86360Y106680D01*
X-58420Y66040D02*
X-58420Y30480D01*
X-73660Y15240D01*
X-58420Y66040D02*
X-40640Y83820D01*
G54D12*
X104764Y-199520D02*
X104764Y-189520D01*
X100782Y-189520D01*
X98791Y-191520D01*
X98791Y-192520D01*
X100782Y-194520D01*
X104764Y-194520D01*
X103769Y-194520D02*
X98791Y-199520D01*
X94809Y-192520D02*
X91822Y-192520D01*
X90827Y-193520D01*
X90827Y-198520D01*
X91822Y-199520D01*
X94809Y-199520D01*
X95804Y-198520D01*
X95804Y-196520D01*
X94809Y-195520D01*
X90827Y-195520D01*
X90827Y-198520D02*
X89831Y-199520D01*
X86844Y-197520D02*
X84853Y-199520D01*
X82862Y-199520D01*
X80871Y-197520D01*
X86844Y-194520D01*
X84853Y-192520D01*
X82862Y-192520D01*
X80871Y-194520D01*
X77884Y-197520D02*
X75893Y-199520D01*
X73902Y-199520D01*
X71911Y-197520D01*
X71911Y-194520D01*
X73902Y-192520D01*
X75893Y-192520D01*
X77884Y-194520D01*
X77884Y-202520D02*
X77884Y-192520D01*
X68924Y-197520D02*
X66933Y-199520D01*
X64942Y-199520D01*
X62951Y-197520D01*
X62951Y-195520D01*
X64942Y-193520D01*
X66933Y-193520D01*
X68924Y-195520D01*
X68924Y-189520D02*
X68924Y-199520D01*
X56978Y-199520D02*
X56978Y-193520D01*
X56978Y-191520D02*
X56978Y-190520D01*
X50009Y-192520D02*
X47022Y-192520D01*
X46027Y-193520D01*
X46027Y-198520D01*
X47022Y-199520D01*
X50009Y-199520D01*
X51004Y-198520D01*
X51004Y-196520D01*
X50009Y-195520D01*
X46027Y-195520D01*
X46027Y-198520D02*
X45031Y-199520D01*
X42044Y-199520D02*
X42044Y-193520D01*
X42044Y-192520D01*
X42044Y-193520D02*
X41049Y-192520D01*
X39058Y-192520D01*
X38062Y-193520D01*
X38062Y-199520D01*
X23129Y-190520D02*
X22133Y-189520D01*
X20142Y-189520D01*
X18151Y-191520D01*
X18151Y-193520D01*
X19147Y-194520D01*
X18151Y-195520D01*
X18151Y-197520D01*
X20142Y-199520D01*
X22133Y-199520D01*
X23129Y-198520D01*
X22133Y-194520D02*
X19147Y-194520D01*
X118204Y-213520D02*
X118204Y-203520D01*
X114222Y-203520D01*
X112231Y-205520D01*
X112231Y-206520D01*
X114222Y-208520D01*
X118204Y-208520D01*
X109244Y-211520D02*
X107253Y-213520D01*
X105262Y-213520D01*
X103271Y-211520D01*
X103271Y-208520D01*
X105262Y-206520D01*
X107253Y-206520D01*
X109244Y-208520D01*
X109244Y-211520D01*
X100284Y-206520D02*
X99289Y-213520D01*
X97298Y-210520D01*
X95307Y-213520D01*
X94311Y-206520D01*
X85351Y-211520D02*
X87342Y-213520D01*
X89333Y-213520D01*
X91324Y-211520D01*
X91324Y-208520D01*
X89333Y-206520D01*
X87342Y-206520D01*
X85351Y-208520D01*
X86347Y-209520D01*
X91324Y-209520D01*
X82364Y-209520D02*
X79378Y-206520D01*
X78382Y-206520D01*
X76391Y-208520D01*
X82364Y-213520D02*
X82364Y-206520D01*
X58471Y-213520D02*
X63449Y-205520D01*
X63449Y-204520D01*
X62453Y-203520D01*
X60462Y-203520D01*
X59467Y-204520D01*
X59467Y-205520D01*
X64444Y-210520D01*
X64444Y-212520D01*
X63449Y-213520D01*
X61458Y-213520D01*
X58471Y-209520D01*
X46524Y-213520D02*
X46524Y-203520D01*
X43538Y-208520D01*
X40551Y-203520D01*
X40551Y-213520D01*
X37564Y-211520D02*
X35573Y-213520D01*
X33582Y-213520D01*
X31591Y-211520D01*
X31591Y-208520D01*
X33582Y-206520D01*
X35573Y-206520D01*
X37564Y-208520D01*
X37564Y-211520D01*
X23627Y-212520D02*
X24622Y-213520D01*
X25618Y-212520D01*
X25618Y-203520D01*
X27609Y-206520D02*
X23627Y-206520D01*
X19644Y-211520D02*
X17653Y-213520D01*
X15662Y-213520D01*
X13671Y-211520D01*
X13671Y-208520D01*
X15662Y-206520D01*
X17653Y-206520D01*
X19644Y-208520D01*
X19644Y-211520D01*
X10684Y-209520D02*
X7698Y-206520D01*
X6702Y-206520D01*
X4711Y-208520D01*
X10684Y-213520D02*
X10684Y-206520D01*
X109244Y-225520D02*
X107253Y-227520D01*
X105262Y-227520D01*
X103271Y-225520D01*
X109244Y-219520D01*
X107253Y-217520D01*
X105262Y-217520D01*
X103271Y-219520D01*
X100284Y-222520D02*
X98293Y-220520D01*
X96302Y-220520D01*
X94311Y-222520D01*
X94311Y-227520D01*
X100284Y-217520D02*
X100284Y-227520D01*
X88338Y-227520D02*
X88338Y-221520D01*
X88338Y-219520D02*
X88338Y-218520D01*
X76391Y-225520D02*
X78382Y-227520D01*
X80373Y-227520D01*
X82364Y-225520D01*
X82364Y-222520D01*
X80373Y-220520D01*
X78382Y-220520D01*
X76391Y-222520D01*
X77387Y-223520D01*
X82364Y-223520D01*
X72409Y-217520D02*
X72409Y-225520D01*
X70418Y-227520D01*
X58471Y-225520D02*
X60462Y-227520D01*
X62453Y-227520D01*
X64444Y-225520D01*
X64444Y-223520D01*
X62453Y-221520D01*
X60462Y-221520D01*
X58471Y-223520D01*
X58471Y-217520D02*
X58471Y-227520D01*
X46524Y-220520D02*
X43538Y-227520D01*
X40551Y-220520D01*
X36569Y-219520D02*
X34578Y-217520D01*
X34578Y-227520D01*
X37564Y-227520D02*
X31591Y-227520D01*
X25618Y-227520D02*
X25618Y-226520D01*
X19644Y-219520D02*
X17653Y-217520D01*
X15662Y-217520D01*
X13671Y-219520D01*
X13671Y-225520D01*
X15662Y-227520D01*
X17653Y-227520D01*
X19644Y-225520D01*
X19644Y-219520D01*
X13671Y-219520D02*
X19644Y-225520D01*
X95804Y-241520D02*
X91822Y-241520D01*
X89831Y-239520D01*
X89831Y-233520D01*
X91822Y-231520D01*
X95804Y-231520D01*
X94809Y-231520D02*
X94809Y-241520D01*
X80871Y-239520D02*
X82862Y-241520D01*
X84853Y-241520D01*
X86844Y-239520D01*
X86844Y-236520D01*
X84853Y-234520D01*
X82862Y-234520D01*
X80871Y-236520D01*
X81867Y-237520D01*
X86844Y-237520D01*
X77884Y-239520D02*
X75893Y-241520D01*
X73902Y-241520D01*
X71911Y-239520D01*
X77884Y-236520D01*
X75893Y-234520D01*
X73902Y-234520D01*
X71911Y-236520D01*
X65938Y-241520D02*
X65938Y-235520D01*
X65938Y-233520D02*
X65938Y-232520D01*
X59964Y-242520D02*
X57973Y-244520D01*
X55982Y-244520D01*
X53991Y-242520D01*
X53991Y-239520D01*
X53991Y-236520D01*
X55982Y-234520D01*
X57973Y-234520D01*
X59964Y-236520D01*
X59964Y-239520D01*
X57973Y-241520D01*
X55982Y-241520D01*
X53991Y-239520D01*
X51004Y-241520D02*
X51004Y-235520D01*
X51004Y-234520D01*
X51004Y-235520D02*
X50009Y-234520D01*
X48018Y-234520D01*
X47022Y-235520D01*
X47022Y-241520D01*
X36071Y-239520D02*
X38062Y-241520D01*
X40053Y-241520D01*
X42044Y-239520D01*
X42044Y-236520D01*
X40053Y-234520D01*
X38062Y-234520D01*
X36071Y-236520D01*
X37067Y-237520D01*
X42044Y-237520D01*
X27111Y-239520D02*
X29102Y-241520D01*
X31093Y-241520D01*
X33084Y-239520D01*
X33084Y-237520D01*
X31093Y-235520D01*
X29102Y-235520D01*
X27111Y-237520D01*
X27111Y-231520D02*
X27111Y-241520D01*
X86844Y-253520D02*
X84853Y-255520D01*
X82862Y-255520D01*
X80871Y-253520D01*
X80871Y-251520D01*
X82862Y-249520D01*
X84853Y-249520D01*
X86844Y-251520D01*
X86844Y-245520D02*
X86844Y-255520D01*
X77884Y-258520D02*
X76889Y-258520D01*
X71911Y-248520D01*
X77884Y-248520D02*
X74898Y-254520D01*
X56978Y-255520D02*
X56978Y-245520D01*
X59964Y-245520D02*
X53991Y-245520D01*
X51004Y-255520D02*
X47022Y-255520D01*
X45031Y-253520D01*
X45031Y-247520D01*
X47022Y-245520D01*
X51004Y-245520D01*
X50009Y-245520D02*
X50009Y-255520D01*
X42044Y-255520D02*
X42044Y-245520D01*
X36071Y-255520D01*
X36071Y-245520D01*
G54D13*
X-233433Y-289306D02*
X-233433Y-232969D01*
X-233433Y-289306D02*
X-185731Y-289306D01*
X243586Y-289306D02*
X195884Y-289306D01*
X243586Y-289306D02*
X243586Y-232969D01*
X243586Y274066D02*
X243586Y217729D01*
X243586Y274066D02*
X195884Y274066D01*
X-233433Y274066D02*
X-185731Y274066D01*
X-233433Y274066D02*
X-233433Y217729D01*
X-283433Y-289306D02*
X-383433Y-289306D01*
X-333433Y-339306D02*
X-333433Y-239306D01*
X-370933Y-289306D02*
G75*
D01*
G02X-370933Y-289306I37500J0*
G01*
X293586Y-289306D02*
X393586Y-289306D01*
X343586Y-339306D02*
X343586Y-239306D01*
X306086Y-289306D02*
G75*
D01*
G02X306086Y-289306I37500J0*
G01*
X331086Y-289306D02*
G75*
D01*
G02X331086Y-289306I12500J0*
G01*
X-283433Y274066D02*
X-383433Y274066D01*
X-333433Y224066D02*
X-333433Y324066D01*
X-370933Y274066D02*
G75*
D01*
G02X-370933Y274066I37500J0*
G01*
X-358433Y274066D02*
G75*
D01*
G02X-358433Y274066I25000J0*
G01*
X-345933Y274066D02*
G75*
D01*
G02X-345933Y274066I12500J0*
G01*
G54D14*
X-40640Y83820D03*
X149860Y0D03*
X149860Y-50800D03*
X149860Y248920D03*
G54D15*
X203200Y-127000D03*
X177800Y-228600D03*
X177800Y-203200D03*
X177800Y-177800D03*
X177800Y-152400D03*
X177800Y-127000D03*
X177800Y-101600D03*
X177800Y-76200D03*
X177800Y-50800D03*
X177800Y-25400D03*
X177800Y0D03*
X177800Y25400D03*
X177800Y50800D03*
X177800Y76200D03*
X177800Y101600D03*
X177800Y127000D03*
X177800Y152400D03*
X177800Y177800D03*
X177800Y203200D03*
X177800Y228600D03*
X203200Y-254000D03*
X203200Y-228600D03*
X203200Y-203200D03*
X203200Y-177800D03*
X203200Y-152400D03*
X203200Y-101600D03*
X203200Y-76200D03*
X203200Y-50800D03*
X203200Y-25400D03*
X203200Y0D03*
X203200Y25400D03*
X203200Y50800D03*
X203200Y76200D03*
X203200Y101600D03*
X203200Y127000D03*
X203200Y152400D03*
X203200Y177800D03*
X203200Y203200D03*
X203200Y228600D03*
X-20320Y-35560D03*
X-96520Y-137160D03*
X-20320Y-86360D03*
X-20320Y-111760D03*
X-20320Y-60960D03*
X-20320Y-10160D03*
X-20320Y15240D03*
X-20320Y40640D03*
X-96520Y15240D03*
X-96520Y-60960D03*
X-96520Y-86360D03*
X-96520Y-111760D03*
X-96520Y-10160D03*
X-96520Y-35560D03*
X-96520Y40640D03*
X-20320Y-137160D03*
G54D16*
X177800Y-254000D03*
G54D17*
X-76200Y208280D03*
X-50800Y208280D03*
X-76200Y137160D03*
X-50800Y137160D03*
X-71120Y-233680D03*
X-45720Y-233680D03*
X66040Y-60960D03*
X66040Y-35560D03*
X-187960Y-60960D03*
X-187960Y-35560D03*
G54D18*
X-142240Y132080D03*
G54D19*
X-148167Y126153D02*
X-136313Y126153D01*
X-136313Y138007D01*
X-148167Y138007D01*
X-148167Y126153D01*D02*
G54D20*
X-142240Y208280D03*

M02*
